# xmcd
#
# Track frame offsets:
#	150
#	14009
#	31928
#	49371
#	63537
#	80249
#	96662
#	110330
#	123839
#	135800
#	152172
#	166012
#	184222
#	201380
#	219626
#	234225
#	245770
#	263850
#	281611
#
# Disc length: 4020 seconds
#
# Revision: 1
# Processed by: cddbd v1.5.2PL0 Copyright (c) Steve Scherf et al.
# Submitted via: audiograbber 1.83.01
#
DISCID=180fb213
DTITLE=Various Artist - Country Radio October 2001
DYEAR=2001
DGENRE=Country
TTITLE0=Charlie Robinson - Right Man For The Job
TTITLE1=Shannon Brown - Baby I Lied
TTITLE2=Leann Rimes - Soon
TTITLE3=Alison Krauss - Union Station - Lucky One, The
TTITLE4=Billy Gilman - Elisabeth
TTITLE5=Sara Evans - Saints and Angels
TTITLE6=Toby Keith - I Wanna Talk About Me
TTITLE7=Jo Dee Messina - Bring On The Rain
TTITLE8=Denise Murray - Not So Fast
TTITLE9=Chad Brock - Tell Me How
TTITLE10=Reba McEntire - I'm A Survivor
TTITLE11=Chris Cagle - I Breathe In, I Breathe Out
TTITLE12=Montgomery Gentry - Cp;d Pne Comin' On
TTITLE13=Jamie O'Neal - Shiver
TTITLE14=Jason McCoy - Ten Million Teardrops
TTITLE15=Patty Loveless - Boys Are Back In Town, the
TTITLE16=Tim Rushlow - Crazy Life
TTITLE17=Confederate Railroad - That's What Brothers Do
TTITLE18=Cledus T. Judd - Plowboy (Country Rap)
EXTD=
EXTT0=
EXTT1=
EXTT2=
EXTT3=
EXTT4=
EXTT5=
EXTT6=
EXTT7=
EXTT8=
EXTT9=
EXTT10=
EXTT11=
EXTT12=
EXTT13=
EXTT14=
EXTT15=
EXTT16=
EXTT17=
EXTT18=
PLAYORDER=
